HIERARCHY
ROOT Hips
{
  OFFSET 56.0181 95.9005 9.59405
  CHANNELS 6 Xposition Yposition Zposition Zrotation Xrotation Yrotation
  JOINT spine
  {
    OFFSET 0 7.96568 0.458067
    CHANNELS 3 Zrotation Xrotation Yrotation
    JOINT spine1
    {
      OFFSET 0 10.2431 0
      CHANNELS 3 Zrotation Xrotation Yrotation
      JOINT spine2
      {
        OFFSET 0 9.81475 0
        CHANNELS 3 Zrotation Xrotation Yrotation
        JOINT Neck
        {
          OFFSET 0 25.1986 1.20138
          CHANNELS 3 Zrotation Xrotation Yrotation
          JOINT Head
          {
            OFFSET 0 7.61315 0
            CHANNELS 3 Zrotation Xrotation Yrotation
            End Site
            {
              OFFSET 0 18.4281 -6.07733
            }
          }
        }
        JOINT RightShoulder
        {
          OFFSET -4.1327 10.5992 -0.575451
          CHANNELS 3 Zrotation Xrotation Yrotation
          JOINT RightArm
          {
            OFFSET 0 13.9018 0
            CHANNELS 3 Zrotation Xrotation Yrotation
            JOINT RightArmRoll
            {
              OFFSET 0 7.01788 0
              CHANNELS 3 Zrotation Xrotation Yrotation
              JOINT RightForeArm
              {
                OFFSET 0 20.4406 0
                CHANNELS 3 Zrotation Xrotation Yrotation
                JOINT RightForeArmRoll
                {
                  OFFSET 0 7.87515 0
                  CHANNELS 3 Zrotation Xrotation Yrotation
                  JOINT RightHand
                  {
                    OFFSET 0 15.8037 0
                    CHANNELS 3 Zrotation Xrotation Yrotation
                    End Site
                    {
                      OFFSET 0 0 0
                    }
                  }
                }
              }
            }
          }
        }
        JOINT LeftShoulder
        {
          OFFSET 4.1327 10.5992 -0.575451
          CHANNELS 3 Zrotation Xrotation Yrotation
          JOINT LeftArm
          {
            OFFSET 0 13.9018 0
            CHANNELS 3 Zrotation Xrotation Yrotation
            JOINT LeftArmRoll
            {
              OFFSET 0 7.01789 0
              CHANNELS 3 Zrotation Xrotation Yrotation
              JOINT LeftForeArm
              {
                OFFSET 0 20.4406 0
                CHANNELS 3 Zrotation Xrotation Yrotation
                JOINT LeftForeArmRoll
                {
                  OFFSET 0 7.87515 0
                  CHANNELS 3 Zrotation Xrotation Yrotation
                  JOINT LeftHand
                  {
                    OFFSET 0 15.8037 0
                    CHANNELS 3 Zrotation Xrotation Yrotation
                    End Site
                    {
                      OFFSET 0 0 0
                    }
                  }
                }
              }
            }
          }
        }
      }
    }
  }
  JOINT RightUpLeg
  {
    OFFSET -7.06048 -1.2947 -1.0861
    CHANNELS 3 Zrotation Xrotation Yrotation
    JOINT RightUpLegRoll
    {
      OFFSET 0 18.5308 0
      CHANNELS 3 Zrotation Xrotation Yrotation
      JOINT RightLeg
      {
        OFFSET 0 -22.9476 0
        CHANNELS 3 Zrotation Xrotation Yrotation
        JOINT RightLegRoll
        {
          OFFSET 0 23.0226 0
          CHANNELS 3 Zrotation Xrotation Yrotation
          JOINT RightFoot
          {
            OFFSET 0 19.1625 0
            CHANNELS 3 Zrotation Xrotation Yrotation
            JOINT RightToeBase
            {
              OFFSET 0 16.0188 0
              CHANNELS 3 Zrotation Xrotation Yrotation
              End Site
              {
                OFFSET 0.00678979 7.75781 -0.894207
              }
            }
          }
        }
      }
    }
  }
  JOINT LeftUpLeg
  {
    OFFSET 7.06048 -1.2947 -1.0861
    CHANNELS 3 Zrotation Xrotation Yrotation
    JOINT LeftUpLegRoll
    {
      OFFSET 0 18.5309 0
      CHANNELS 3 Zrotation Xrotation Yrotation
      JOINT LeftLeg
      {
        OFFSET 0 22.9475 0
        CHANNELS 3 Zrotation Xrotation Yrotation
        JOINT LeftLegRoll
        {
          OFFSET 0 23.2355 0
          CHANNELS 3 Zrotation Xrotation Yrotation
          JOINT LeftFoot
          {
            OFFSET 0 18.9496 0
            CHANNELS 3 Zrotation Xrotation Yrotation
            JOINT LeftToeBase
            {
              OFFSET 0 16.0188 0
              CHANNELS 3 Zrotation Xrotation Yrotation
              End Site
              {
                OFFSET -0.0304289 7.75781 -0.894207
              }
            }
          }
        }
      }
    }
  }
}
MOTION
Frames: 5
Frame Time: 0.00208333
50.201 96.8931 9.47841 -0.863966 -2.82381 -2.30141 0.0231101 -0.518437 -0.1349 0.0458284 2.96405 -0.272529 0.0491591 4.60912 -0.273543 -7.89147 8.10789 5.77659 3.92922 12.3099 4.05952 59.0537 -1.28773 -0.831771 108.719 24.9439 -54.9225 -3.27074e-006 -1.41728e-005 -7.15951e-006 44.8653 82.7578 -46.6619 -1.35853e-005 1.1069e-005 -3.00375 8.02978 -4.95109 0.697582 -63.9262 -9.30184 5.84409 -100.576 19.9941 37.6026 6.58021e-006 -1.15318e-006 1.26356e-005 -43.6861 81.8153 45.9923 -6.83391e-006 -1.17793e-005 3.00002 -8.02966 -4.95107 -0.697575 178.525 1.29971 1.42536 -180 7.01545e-015 178.914 178.995 6.95598 179.551 1.36435e-006 -1.14054e-006 0.107105 -19.1736 68.5158 19.9744 8.13131 25.2329 -3.48552 -176.156 -3.96613 -2.17654 4.54188e-006 -4.6773e-006 -1.15978 -3.79887 -5.37648 -0.0830623 -2.08093e-006 -1.61506e-006 -0.0709168 18.9946 68.3301 -19.8053 -8.13649 25.2327 3.48774 
50.1926 96.895 9.46499 -0.882677 -2.78694 -2.28504 0.0250226 -0.515085 -0.139179 0.049068 2.97088 -0.281289 0.0525085 4.61595 -0.282367 -7.85236 7.95571 5.75153 3.9065 12.2154 4.05597 59.0646 -1.29151 -0.83528 108.681 24.9274 -55.0484 -3.27074e-006 -1.41728e-005 -7.15951e-006 45.0853 82.8391 -46.9291 -1.35853e-005 1.1069e-005 -3.00375 8.02978 -4.95109 0.697582 -63.9109 -9.29965 5.84267 -100.651 19.9667 37.8181 6.58021e-006 -1.15318e-006 1.26356e-005 -44.1092 81.957 46.4967 -6.83391e-006 -1.17793e-005 3.00002 -8.02966 -4.95107 -0.697575 178.548 1.38915 1.40243 -180 7.01545e-015 178.914 179 7.03166 179.549 1.36435e-006 -1.14054e-006 0.108501 -19.1777 68.5204 19.9788 8.13131 25.2329 -3.48552 -176.115 -3.91762 -2.20316 4.54188e-006 -4.6773e-006 -1.1593 -3.81004 -5.37628 -0.0839933 -2.08093e-006 -1.61506e-006 -0.0709168 18.9942 68.3296 -19.8049 -8.13649 25.2327 3.48774 
50.1855 96.8939 9.44576 -0.901388 -2.75023 -2.26872 0.0269907 -0.511745 -0.143448 0.0523803 2.97769 -0.290033 0.0559308 4.62276 -0.291178 -7.81472 7.80566 5.72653 3.88478 12.1188 4.05219 59.0747 -1.29497 -0.838508 108.644 24.9122 -55.1778 -3.27074e-006 -1.41728e-005 -7.15951e-006 45.3166 82.9196 -47.2068 -1.35853e-005 1.1069e-005 -3.00375 8.02978 -4.95109 0.697582 -63.8964 -9.29742 5.84123 -100.726 19.9392 38.038 6.58021e-006 -1.15318e-006 1.26356e-005 -44.5601 82.1002 47.03 -6.83391e-006 -1.17793e-005 3.00002 -8.02966 -4.95107 -0.697575 178.571 1.478 1.37968 -180 7.01545e-015 178.914 179.005 7.10658 179.547 1.36435e-006 -1.14054e-006 0.109905 -19.182 68.5254 19.9835 8.13131 25.2329 -3.48552 -176.073 -3.86891 -2.23027 4.54188e-006 -4.6773e-006 -1.15884 -3.82154 -5.37665 -0.084942 -2.08093e-006 -1.61506e-006 -0.0709168 18.9938 68.3292 -19.8044 -8.13649 25.2327 3.48774 
50.1751 96.8962 9.42624 -0.920105 -2.71362 -2.25243 0.0289981 -0.508413 -0.147709 0.055744 2.98449 -0.298766 0.0594047 4.62956 -0.299979 -7.77816 7.65709 5.70159 3.86375 12.0208 4.04825 59.0842 -1.2982 -0.841538 108.609 24.8978 -55.3097 -3.27074e-006 -1.41728e-005 -7.15951e-006 45.5579 82.9994 -47.4939 -1.35853e-005 1.1069e-005 -3.00375 8.02978 -4.95109 0.697582 -63.8825 -9.29515 5.83979 -100.802 19.9115 38.2607 6.58021e-006 -1.15318e-006 1.26356e-005 -45.0376 82.2441 47.5909 -6.83391e-006 -1.17793e-005 3.00002 -8.02966 -4.95107 -0.697575 178.595 1.56644 1.35707 -180 7.01545e-015 178.914 179.01 7.18097 179.545 1.36435e-006 -1.14054e-006 0.111313 -19.1865 68.5305 19.9884 8.13131 25.2329 -3.48552 -176.031 -3.82006 -2.25773 4.54188e-006 -4.6773e-006 -1.1584 -3.83328 -5.37741 -0.0859031 -2.08093e-006 -1.61506e-006 -0.0709168 18.9934 68.3287 -19.804 -8.13649 25.2327 3.48774 
50.1614 96.8979 9.41179 -0.938836 -2.67707 -2.23615 0.0310279 -0.505086 -0.151967 0.0591381 2.99128 -0.307494 0.062909 4.63634 -0.308775 -7.74227 7.50936 5.67672 3.84312 11.922 4.04422 59.0934 -1.30129 -0.844455 108.574 24.8837 -55.4429 -3.27074e-006 -1.41728e-005 -7.15951e-006 45.8078 83.0788 -47.7894 -1.35853e-005 1.1069e-005 -3.00375 8.02978 -4.95109 0.697582 -63.8689 -9.29288 5.83834 -100.878 19.8835 38.4851 6.58021e-006 -1.15318e-006 1.26356e-005 -45.5404 82.388 48.1777 -6.83391e-006 -1.17793e-005 3.00002 -8.02966 -4.95107 -0.697575 178.619 1.65465 1.33452 -180 7.01545e-015 178.914 179.014 7.25504 179.543 1.36435e-006 -1.14054e-006 0.112725 -19.1911 68.5358 19.9934 8.13131 25.2329 -3.48552 -175.989 -3.77113 -2.28538 4.54188e-006 -4.6773e-006 -1.15796 -3.84514 -5.3784 -0.0868713 -2.08093e-006 -1.61506e-006 -0.0709168 18.9929 68.3282 -19.8036 -8.13649 25.2327 3.48774 
